<svg xmlns="http://www.w3.org/2000/svg" width="30" height="30" viewBox="0 0 30 30">
    <g fill="none" fill-rule="evenodd">
        <g fill="#000" fill-rule="nonzero">
            <g>
                <path d="M23.753 6.247c-.487-.486-1.276-.486-1.763 0L15 13.237l-6.99-6.99c-.487-.486-1.276-.486-1.763 0-.486.487-.486 1.276 0 1.763l6.99 6.99-6.99 6.99c-.486.487-.486 1.276 0 1.763.487.486 1.276.486 1.763 0l6.99-6.99 6.99 6.99c.487.486 1.276.486 1.763 0 .486-.487.486-1.276 0-1.763L16.763 15l6.99-6.99c.486-.487.486-1.276 0-1.763z" transform="translate(-1275 -30) translate(1275 30)"/>
            </g>
        </g>
    </g>
</svg>
