<svg xmlns="http://www.w3.org/2000/svg" width="24" height="24" viewBox="0 0 24 24">
    <defs>
        <filter id="leu0kvvyqa">
            <feColorMatrix in="SourceGraphic" values="0 0 0 0 0.731116 0 0 0 0 0.717883 0 0 0 0 0.755378 0 0 0 1.000000 0"/>
        </filter>
    </defs>
    <g fill="none" fill-rule="evenodd">
        <g>
            <g filter="url(#leu0kvvyqa)" transform="translate(-1193 -33) translate(335 15)">
                <g>
                    <path fill="#000" fill-rule="nonzero" d="M12 2c5.53 0 10 4.47 10 10s-4.47 10-10 10S2 17.53 2 12 6.47 2 12 2zM9.115 7.705c-.39-.39-1.02-.39-1.41 0-.39.39-.39 1.02 0 1.41L10.59 12l-2.885 2.885c-.39.39-.39 1.02 0 1.41.39.39 1.02.39 1.41 0L12 13.41l2.885 2.885c.39.39 1.02.39 1.41 0 .39-.39.39-1.02 0-1.41L13.41 12l2.885-2.885c.39-.39.39-1.02 0-1.41-.39-.39-1.02-.39-1.41 0L12 10.59z" transform="translate(858 18)"/>
                </g>
            </g>
        </g>
    </g>
</svg>
