<svg xmlns="http://www.w3.org/2000/svg" width="28" height="24" viewBox="0 0 28 24">
    <defs>
        <filter id="qjelue2nwa">
            <feColorMatrix in="SourceGraphic" values="0 0 0 0 0.964706 0 0 0 0 0.403922 0 0 0 0 0.341176 0 0 0 1.000000 0"/>
        </filter>
    </defs>
    <g fill="none" fill-rule="evenodd">
        <g>
            <g>
                <g filter="url(#qjelue2nwa)" transform="translate(-974 -572) translate(634 560) translate(1)">
                    <g>
                        <path fill="#000" fill-rule="nonzero" d="M10.003 6.307c.461-.396 1.144-.39 1.599.013.032.028.062.059.09.091.33.388.284.972-.104 1.303l-3.854 3.285L22.64 11c.553 0 1 .448 1 1s-.447 1-1 1l-14.925-.001 3.879 3.365.044.041.042.044c.342.385.307.974-.078 1.315-.454.404-1.136.407-1.594.008L3.378 12z" transform="translate(339.97 12) rotate(-180 13.509 12.041)"/>
                    </g>
                </g>
            </g>
        </g>
    </g>
</svg>
