<svg xmlns="http://www.w3.org/2000/svg" width="18" height="18" viewBox="0 0 18 18">
    <g fill="none" fill-rule="evenodd">
        <g fill="#000">
            <g>
                <g>
                    <g>
                        <g>
                            <g>
                                <path d="M4.598 2.369c1.343.15 2.56.567 3.648 1.253.124.079.199.215.199.362v11.633c-1.426-.795-2.709-1.257-3.848-1.383-.507-.057-1.044-.088-1.609-.094H2.56c-.29.003-.586.013-.89.029l-.461.028c-.21.015-.394-.123-.445-.32l-.013-.091V2.747c0-.11.041-.21.11-.286l.056-.052c.06-.047.135-.078.217-.087 1.04-.11 2.196-.094 3.465.047zm10.795-.118c.422.006.829.03 1.22.071.08.009.155.04.216.087l.056.052c.052.057.088.128.102.206l.008.08v11.039l-.013.091c-.05.197-.235.335-.445.32-.466-.033-.917-.052-1.351-.057h-.43c-.564.006-1.1.037-1.608.094-1.044.116-2.209.513-3.494 1.191l-.354.192V3.984c0-.147.075-.283.2-.362 1.088-.686 2.304-1.104 3.648-1.253.634-.07 1.24-.11 1.817-.118h.428z" transform="translate(-180 -517) translate(135 183) translate(0 239) translate(0 90) translate(40) translate(5 5)"/>
                            </g>
                        </g>
                    </g>
                </g>
            </g>
        </g>
    </g>
</svg>
