<svg xmlns="http://www.w3.org/2000/svg" width="18" height="18" viewBox="0 0 18 18">
    <g fill="none" fill-rule="evenodd">
        <g fill="#000" fill-rule="nonzero">
            <g>
                <g>
                    <g>
                        <g>
                            <g>
                                <g>
                                    <g>
                                        <g>
                                            <path d="M13.357 11.25c.493 0 .893.4.893.893v3.464c0 .493-.4.893-.893.893h-1.214c-.493 0-.893-.4-.893-.893v-3.464c0-.493.4-.893.893-.893h1.214zm-7.5 0c.493 0 .893.4.893.893v3.464c0 .493-.4.893-.893.893H4.643c-.493 0-.893-.4-.893-.893v-3.464c0-.493.4-.893.893-.893h1.214zM9 1.5c4.072 0 7.386 3.245 7.497 7.29L16.5 9v6H15V9c0-3.314-2.686-6-6-6-3.251 0-5.898 2.586-5.997 5.813L3 9v6H1.5V9c0-4.142 3.358-7.5 7.5-7.5z" transform="translate(-700 -652) translate(135 130) translate(240) translate(0 122) translate(240) translate(0 305) translate(0 90) translate(80) translate(5 5)"/>
                                        </g>
                                    </g>
                                </g>
                            </g>
                        </g>
                    </g>
                </g>
            </g>
        </g>
    </g>
</svg>
