<svg xmlns="http://www.w3.org/2000/svg" width="18" height="18" viewBox="0 0 18 18">
    <defs>
        <filter id="0ufjy9kjsa">
            <feColorMatrix in="SourceGraphic" values="0 0 0 0 0.537255 0 0 0 0 0.513725 0 0 0 0 0.580392 0 0 0 1.000000 0"/>
        </filter>
    </defs>
    <g fill="none" fill-rule="evenodd">
        <g>
            <g>
                <g>
                    <g filter="url(#0ufjy9kjsa)" transform="translate(-142 -262) translate(135 130) translate(0 80) translate(0 45)">
                        <g>
                            <path fill="#000" d="M13.5.75c1.19 0 2.166.925 2.245 2.096L15.75 3v12c0 1.19-.925 2.166-2.096 2.245l-.154.005h-9c-1.19 0-2.166-.925-2.245-2.096L2.25 15V3c0-1.19.925-2.166 2.096-2.245L4.5.75h9zM9 14.25c-.414 0-.75.336-.75.75s.336.75.75.75.75-.336.75-.75-.336-.75-.75-.75zm4.5-12h-9c-.38 0-.693.282-.743.648L3.75 3v9.75h10.5V3c0-.414-.336-.75-.75-.75zM9 9.75v1.5H5.25v-1.5H9zm3.75-3v1.5h-7.5v-1.5h7.5zm0-3v1.5h-7.5v-1.5h7.5z" transform="translate(7 7)"/>
                        </g>
                    </g>
                </g>
            </g>
        </g>
    </g>
</svg>
