<svg xmlns="http://www.w3.org/2000/svg" width="24" height="24" viewBox="0 0 24 24">
    <g fill="none" fill-rule="evenodd">
        <g fill="#000" fill-rule="nonzero">
            <g>
                <path d="M19.002 4.998c-.39-.39-1.02-.39-1.41 0L12 10.59 6.408 4.998c-.39-.39-1.02-.39-1.41 0-.39.39-.39 1.02 0 1.41L10.59 12l-5.592 5.592c-.39.39-.39 1.02 0 1.41.39.39 1.02.39 1.41 0L12 13.41l5.592 5.592c.39.39 1.02.39 1.41 0 .39-.39.39-1.02 0-1.41L13.41 12l5.592-5.592c.39-.39.39-1.02 0-1.41z" transform="translate(-327 -19) translate(327 19)"/>
            </g>
        </g>
    </g>
</svg>
