<svg xmlns="http://www.w3.org/2000/svg" width="32" height="32" viewBox="0 0 32 32">
    <defs>
        <filter id="n3qq34gmea">
            <feColorMatrix in="SourceGraphic" values="0 0 0 0 0.537255 0 0 0 0 0.513725 0 0 0 0 0.580392 0 0 0 1.000000 0"/>
        </filter>
    </defs>
    <g fill="none" fill-rule="evenodd">
        <g>
            <g>
                <g filter="url(#n3qq34gmea)" transform="translate(-433 -727) translate(235 183) translate(0 544)">
                    <g>
                        <path fill="#000" d="M17.43 3.81c2.042.006 2.51.024 3.593.073 1.298.06 2.185.265 2.962.567.802.31 1.48.727 2.158 1.405.679.678 1.095 1.358 1.407 2.16.3.775.506 1.66.567 2.959.049 1.083.067 1.552.072 3.595l.001.521V17.432c-.006 2.042-.024 2.51-.073 3.594-.061 1.297-.267 2.183-.567 2.958-.312.802-.728 1.482-1.407 2.16-.677.678-1.356 1.095-2.158 1.407-.775.301-1.662.507-2.96.566-.217.01-.409.019-.594.026l-.22.009c-.728.026-1.455.036-3.301.038h-1.82c-1.847-.002-2.574-.012-3.303-.038l-.22-.009c-.185-.007-.377-.016-.593-.026-1.298-.06-2.184-.265-2.96-.566-.801-.312-1.481-.73-2.158-1.407-.678-.678-1.095-1.358-1.406-2.16-.302-.775-.507-1.66-.567-2.959-.049-1.083-.067-1.551-.072-3.593v-2.864c.005-2.042.023-2.511.072-3.595.058-1.297.264-2.183.566-2.958.313-.802.73-1.482 1.407-2.16.678-.678 1.358-1.094 2.16-1.405.775-.302 1.66-.507 2.959-.567 1.083-.05 1.552-.067 3.595-.072zm-2.522 2.193l-.553.001c-1.8.005-2.253.022-3.28.068-1.188.055-1.834.253-2.264.42-.568.222-.975.486-1.401.912-.427.427-.692.834-.913 1.402-.167.43-.365 1.075-.42 2.264l-.03.693-.007.214c-.018.537-.027 1.1-.03 2.16l-.002.7v2.315l.002.7c.004 1.132.013 1.697.034 2.268l.008.216.025.585c.055 1.188.253 1.833.42 2.263.222.569.486.974.913 1.4.426.428.833.692 1.401.913.43.166 1.076.365 2.264.42l.693.03.215.008c.68.023 1.402.03 3.124.033h2.082c1.513-.003 2.19-.012 2.83-.033l.215-.008.693-.03c1.189-.054 1.834-.253 2.264-.42.569-.221.974-.485 1.4-.912.427-.426.692-.831.913-1.4.167-.43.365-1.075.42-2.263l.025-.585.008-.216c.026-.713.035-1.418.037-3.23v-1.787c-.002-1.812-.01-2.517-.037-3.23l-.008-.216-.025-.585c-.055-1.189-.253-1.834-.42-2.263-.222-.569-.486-.975-.913-1.402-.426-.427-.832-.69-1.4-.912-.43-.167-1.075-.365-2.264-.42l-.693-.03-.215-.007c-.644-.022-1.326-.03-2.86-.032h-2.251v-.004zM16 9.74l.23.005c3.35.12 6.03 2.876 6.03 6.256 0 3.457-2.803 6.26-6.26 6.26s-6.26-2.803-6.26-6.26S12.544 9.74 16 9.74zm0 2.198c-2.244 0-4.063 1.819-4.063 4.063 0 2.244 1.819 4.064 4.063 4.064 2.244 0 4.064-1.82 4.064-4.064 0-2.244-1.82-4.063-4.064-4.063zm6.507-3.906l.141.006c.742.07 1.322.696 1.322 1.456 0 .808-.655 1.463-1.463 1.463-.807 0-1.462-.655-1.462-1.463S21.7 8.03 22.508 8.03z" transform="translate(198)"/>
                    </g>
                </g>
            </g>
        </g>
    </g>
</svg>
