<svg xmlns="http://www.w3.org/2000/svg" width="32" height="32" viewBox="0 0 32 32">
    <defs>
        <filter id="eh6qaxydia">
            <feColorMatrix in="SourceGraphic" values="0 0 0 0 0.537255 0 0 0 0 0.513725 0 0 0 0 0.580392 0 0 0 1.000000 0"/>
        </filter>
    </defs>
    <g fill="none" fill-rule="evenodd">
        <g>
            <g>
                <g filter="url(#eh6qaxydia)" transform="translate(-529 -727) translate(235 183) translate(0 544)">
                    <g>
                        <path fill="#000" d="M15.148 12.11l.05.82-.83-.1c-3.019-.386-5.656-1.692-7.896-3.886L5.377 7.855l-.282.804c-.597 1.792-.216 3.685 1.029 4.958.663.703.514.804-.63.385-.4-.134-.747-.235-.78-.184-.117.117.281 1.641.597 2.244.431.837 1.31 1.658 2.272 2.144l.813.385-.962.017c-.929 0-.962.017-.863.368.332 1.089 1.643 2.245 3.103 2.747l1.028.352-.895.536c-1.328.77-2.887 1.206-4.447 1.24-.746.016-1.36.083-1.36.133 0 .168 2.024 1.106 3.202 1.474 3.534 1.089 7.73.62 10.883-1.24 2.24-1.322 4.48-3.952 5.524-6.498.564-1.356 1.129-3.835 1.129-5.024 0-.77.05-.871.978-1.793.548-.535 1.062-1.122 1.162-1.29.166-.317.149-.317-.697-.033-1.41.503-1.61.436-.913-.318.515-.536 1.129-1.507 1.129-1.792 0-.05-.25.033-.531.184-.299.168-.963.419-1.46.57l-.896.284-.813-.552c-.448-.302-1.078-.637-1.41-.737-.846-.235-2.14-.201-2.903.067-2.074.753-3.385 2.696-3.236 4.823z" transform="translate(294)"/>
                    </g>
                </g>
            </g>
        </g>
    </g>
</svg>
